<svg width="31" height="10" viewBox="0 0 31 10" fill="none" xmlns="http://www.w3.org/2000/svg">
<path d="M1.776 9.468C1.528 9.468 1.292 9.396 1.068 9.252C0.844 9.116 0.676 8.904 0.564 8.616C0.524 8.512 0.496 8.4 0.48 8.28C0.464 8.16 0.456 8.048 0.456 7.944V7.836C0.456 7.772 0.46 7.708 0.468 7.644C0.484 7.58 0.52 7.548 0.576 7.548C0.592 7.548 0.6 7.556 0.6 7.572C0.6 7.62 0.596 7.672 0.588 7.728C0.588 7.776 0.588 7.824 0.588 7.872C0.588 8.248 0.68 8.532 0.864 8.724C1.056 8.916 1.292 9.012 1.572 9.012C1.852 9.012 2.124 8.932 2.388 8.772C2.652 8.612 2.896 8.408 3.12 8.16C3.344 7.912 3.556 7.604 3.756 7.236C3.956 6.868 4.144 6.48 4.32 6.072C4.496 5.656 4.66 5.248 4.812 4.848C4.972 4.448 5.12 4.092 5.256 3.78C5.336 3.596 5.484 3.44 5.7 3.312C5.924 3.184 6.136 3.092 6.336 3.036C6.28 3.028 6.224 3.024 6.168 3.024C6.12 3.016 6.072 3.008 6.024 3L4.332 2.832C4.204 2.816 4.036 2.804 3.828 2.796C3.62 2.788 3.4 2.784 3.168 2.784C2.856 2.784 2.536 2.804 2.208 2.844C1.88 2.876 1.584 2.936 1.32 3.024C1.056 3.112 0.864 3.244 0.744 3.42C0.68 3.516 0.648 3.628 0.648 3.756C0.648 3.884 0.684 4.004 0.756 4.116C0.828 4.228 0.92 4.316 1.032 4.38C1.048 4.396 1.056 4.408 1.056 4.416C1.056 4.44 1.036 4.46 0.996 4.476C0.964 4.492 0.928 4.492 0.888 4.476C0.816 4.436 0.732 4.368 0.636 4.272C0.54 4.176 0.452 4.076 0.372 3.972C0.3 3.86 0.248 3.768 0.216 3.696C0.168 3.56 0.144 3.44 0.144 3.336C0.144 3.144 0.208 2.988 0.336 2.868C0.472 2.74 0.644 2.644 0.852 2.58C1.068 2.508 1.296 2.46 1.536 2.436C1.784 2.404 2.02 2.388 2.244 2.388C2.332 2.388 2.416 2.388 2.496 2.388C2.576 2.388 2.652 2.392 2.724 2.4C2.98 2.416 3.248 2.432 3.528 2.448C3.808 2.464 4.092 2.484 4.38 2.508L6.288 2.664C6.416 2.672 6.608 2.688 6.864 2.712C7.128 2.728 7.396 2.736 7.668 2.736C7.964 2.736 8.236 2.72 8.484 2.688C8.732 2.648 8.896 2.58 8.976 2.484C8.992 2.452 9.016 2.444 9.048 2.46C9.08 2.476 9.088 2.496 9.072 2.52C9.048 2.616 9.016 2.688 8.976 2.736C8.936 2.816 8.88 2.904 8.808 3C8.744 3.096 8.644 3.16 8.508 3.192C8.476 3.2 8.432 3.208 8.376 3.216C8.32 3.216 8.26 3.216 8.196 3.216C8.012 3.216 7.788 3.204 7.524 3.18C7.268 3.148 7.016 3.116 6.768 3.084C6.528 3.124 6.32 3.236 6.144 3.42C5.968 3.604 5.816 3.816 5.688 4.056C5.56 4.288 5.448 4.508 5.352 4.716C5.176 5.076 5.028 5.408 4.908 5.712C4.796 6.008 4.656 6.336 4.488 6.696C4.32 7.064 4.144 7.428 3.96 7.788C3.776 8.14 3.552 8.46 3.288 8.748C3.088 8.964 2.856 9.136 2.592 9.264C2.328 9.4 2.056 9.468 1.776 9.468ZM8.94673 2.45455V3.30682H5.55469V2.45455H8.94673ZM6.54332 0.886364H7.54901V7.125C7.54901 7.40909 7.5902 7.62216 7.67259 7.7642C7.75781 7.90341 7.86577 7.99716 7.99645 8.04545C8.12997 8.09091 8.2706 8.11364 8.41832 8.11364C8.52912 8.11364 8.62003 8.10795 8.69105 8.09659C8.76207 8.08239 8.81889 8.07102 8.86151 8.0625L9.06605 8.96591C8.99787 8.99148 8.9027 9.01705 8.78054 9.04261C8.65838 9.07102 8.50355 9.08523 8.31605 9.08523C8.03196 9.08523 7.75355 9.02415 7.48082 8.90199C7.21094 8.77983 6.98651 8.59375 6.80753 8.34375C6.63139 8.09375 6.54332 7.77841 6.54332 7.39773V0.886364ZM14.5845 6.32386V2.45455H15.5902V9H14.5845V7.89205H14.5163C14.3629 8.22443 14.1243 8.5071 13.8004 8.74006C13.4766 8.97017 13.0675 9.08523 12.5732 9.08523C12.1641 9.08523 11.8004 8.99574 11.4822 8.81676C11.1641 8.63494 10.9141 8.36222 10.7322 7.99858C10.5504 7.6321 10.4595 7.17045 10.4595 6.61364V2.45455H11.4652V6.54545C11.4652 7.02273 11.5987 7.40341 11.8658 7.6875C12.1357 7.97159 12.4794 8.11364 12.897 8.11364C13.147 8.11364 13.4013 8.04972 13.6598 7.92188C13.9212 7.79403 14.1399 7.59801 14.3161 7.33381C14.495 7.0696 14.5845 6.73295 14.5845 6.32386ZM17.5685 9V0.272727H18.5742V3.49432H18.6594C18.7333 3.38068 18.8356 3.2358 18.9663 3.05966C19.0998 2.88068 19.2901 2.72159 19.5373 2.58239C19.7873 2.44034 20.1254 2.36932 20.5515 2.36932C21.1026 2.36932 21.5884 2.5071 22.0089 2.78267C22.4293 3.05824 22.7575 3.44886 22.9933 3.95455C23.229 4.46023 23.3469 5.05682 23.3469 5.74432C23.3469 6.4375 23.229 7.03835 22.9933 7.54688C22.7575 8.05256 22.4308 8.4446 22.0131 8.72301C21.5955 8.99858 21.114 9.13636 20.5685 9.13636C20.1481 9.13636 19.8114 9.06676 19.5586 8.92756C19.3058 8.78551 19.1112 8.625 18.9748 8.44602C18.8384 8.2642 18.7333 8.11364 18.6594 7.99432H18.5401V9H17.5685ZM18.5572 5.72727C18.5572 6.22159 18.6296 6.65767 18.7745 7.03551C18.9194 7.41051 19.131 7.70455 19.4094 7.91761C19.6879 8.12784 20.0288 8.23295 20.4322 8.23295C20.8526 8.23295 21.2035 8.12216 21.4847 7.90057C21.7688 7.67614 21.9819 7.375 22.1239 6.99716C22.2688 6.61648 22.3413 6.19318 22.3413 5.72727C22.3413 5.26705 22.2702 4.85227 22.1282 4.48295C21.989 4.1108 21.7773 3.81676 21.4933 3.60085C21.212 3.3821 20.8583 3.27273 20.4322 3.27273C20.0231 3.27273 19.6793 3.37642 19.4009 3.58381C19.1225 3.78835 18.9123 4.07528 18.7702 4.4446C18.6282 4.81108 18.5572 5.23864 18.5572 5.72727ZM27.6296 9.13636C26.9989 9.13636 26.4549 8.99716 25.9975 8.71875C25.543 8.4375 25.1921 8.04545 24.945 7.54261C24.7006 7.03693 24.5785 6.44886 24.5785 5.77841C24.5785 5.10795 24.7006 4.51705 24.945 4.00568C25.1921 3.49148 25.5359 3.09091 25.9762 2.80398C26.4194 2.5142 26.9364 2.36932 27.5273 2.36932C27.8683 2.36932 28.2049 2.42614 28.5373 2.53977C28.8697 2.65341 29.1722 2.83807 29.445 3.09375C29.7177 3.34659 29.935 3.68182 30.0969 4.09943C30.2589 4.51705 30.3398 5.03125 30.3398 5.64205V6.06818H25.2944V5.19886H29.3171C29.3171 4.82955 29.2433 4.5 29.0955 4.21023C28.9506 3.92045 28.7433 3.69176 28.4734 3.52415C28.2063 3.35653 27.891 3.27273 27.5273 3.27273C27.1268 3.27273 26.7802 3.37216 26.4876 3.57102C26.1978 3.76705 25.9748 4.02273 25.8185 4.33807C25.6623 4.65341 25.5842 4.99148 25.5842 5.35227V5.93182C25.5842 6.42614 25.6694 6.84517 25.8398 7.18892C26.0131 7.52983 26.2532 7.78977 26.56 7.96875C26.8668 8.14489 27.2234 8.23295 27.6296 8.23295C27.8938 8.23295 28.1325 8.19602 28.3455 8.12216C28.5614 8.04545 28.7475 7.93182 28.9038 7.78125C29.06 7.62784 29.1808 7.4375 29.266 7.21023L30.2376 7.48295C30.1353 7.8125 29.9634 8.10227 29.7219 8.35227C29.4805 8.59943 29.1822 8.79261 28.8271 8.93182C28.4719 9.06818 28.0728 9.13636 27.6296 9.13636Z" fill="#D6202C"/>
</svg>
