<svg width="10" height="10" viewBox="0 0 10 10" fill="none" xmlns="http://www.w3.org/2000/svg">
<path d="M1.776 9.468C1.528 9.468 1.292 9.396 1.068 9.252C0.844 9.116 0.676 8.904 0.564 8.616C0.524 8.512 0.496 8.4 0.48 8.28C0.464 8.16 0.456 8.048 0.456 7.944V7.836C0.456 7.772 0.46 7.708 0.468 7.644C0.484 7.58 0.52 7.548 0.576 7.548C0.592 7.548 0.6 7.556 0.6 7.572C0.6 7.62 0.596 7.672 0.588 7.728C0.588 7.776 0.588 7.824 0.588 7.872C0.588 8.248 0.68 8.532 0.864 8.724C1.056 8.916 1.292 9.012 1.572 9.012C1.852 9.012 2.124 8.932 2.388 8.772C2.652 8.612 2.896 8.408 3.12 8.16C3.344 7.912 3.556 7.604 3.756 7.236C3.956 6.868 4.144 6.48 4.32 6.072C4.496 5.656 4.66 5.248 4.812 4.848C4.972 4.448 5.12 4.092 5.256 3.78C5.336 3.596 5.484 3.44 5.7 3.312C5.924 3.184 6.136 3.092 6.336 3.036C6.28 3.028 6.224 3.024 6.168 3.024C6.12 3.016 6.072 3.008 6.024 3L4.332 2.832C4.204 2.816 4.036 2.804 3.828 2.796C3.62 2.788 3.4 2.784 3.168 2.784C2.856 2.784 2.536 2.804 2.208 2.844C1.88 2.876 1.584 2.936 1.32 3.024C1.056 3.112 0.864 3.244 0.744 3.42C0.68 3.516 0.648 3.628 0.648 3.756C0.648 3.884 0.684 4.004 0.756 4.116C0.828 4.228 0.92 4.316 1.032 4.38C1.048 4.396 1.056 4.408 1.056 4.416C1.056 4.44 1.036 4.46 0.996 4.476C0.964 4.492 0.928 4.492 0.888 4.476C0.816 4.436 0.732 4.368 0.636 4.272C0.54 4.176 0.452 4.076 0.372 3.972C0.3 3.86 0.248 3.768 0.216 3.696C0.168 3.56 0.144 3.44 0.144 3.336C0.144 3.144 0.208 2.988 0.336 2.868C0.472 2.74 0.644 2.644 0.852 2.58C1.068 2.508 1.296 2.46 1.536 2.436C1.784 2.404 2.02 2.388 2.244 2.388C2.332 2.388 2.416 2.388 2.496 2.388C2.576 2.388 2.652 2.392 2.724 2.4C2.98 2.416 3.248 2.432 3.528 2.448C3.808 2.464 4.092 2.484 4.38 2.508L6.288 2.664C6.416 2.672 6.608 2.688 6.864 2.712C7.128 2.728 7.396 2.736 7.668 2.736C7.964 2.736 8.236 2.72 8.484 2.688C8.732 2.648 8.896 2.58 8.976 2.484C8.992 2.452 9.016 2.444 9.048 2.46C9.08 2.476 9.088 2.496 9.072 2.52C9.048 2.616 9.016 2.688 8.976 2.736C8.936 2.816 8.88 2.904 8.808 3C8.744 3.096 8.644 3.16 8.508 3.192C8.476 3.2 8.432 3.208 8.376 3.216C8.32 3.216 8.26 3.216 8.196 3.216C8.012 3.216 7.788 3.204 7.524 3.18C7.268 3.148 7.016 3.116 6.768 3.084C6.528 3.124 6.32 3.236 6.144 3.42C5.968 3.604 5.816 3.816 5.688 4.056C5.56 4.288 5.448 4.508 5.352 4.716C5.176 5.076 5.028 5.408 4.908 5.712C4.796 6.008 4.656 6.336 4.488 6.696C4.32 7.064 4.144 7.428 3.96 7.788C3.776 8.14 3.552 8.46 3.288 8.748C3.088 8.964 2.856 9.136 2.592 9.264C2.328 9.4 2.056 9.468 1.776 9.468ZM8.94673 2.45455V3.30682H5.55469V2.45455H8.94673ZM6.54332 0.886364H7.54901V7.125C7.54901 7.40909 7.5902 7.62216 7.67259 7.7642C7.75781 7.90341 7.86577 7.99716 7.99645 8.04545C8.12997 8.09091 8.2706 8.11364 8.41832 8.11364C8.52912 8.11364 8.62003 8.10795 8.69105 8.09659C8.76207 8.08239 8.81889 8.07102 8.86151 8.0625L9.06605 8.96591C8.99787 8.99148 8.9027 9.01705 8.78054 9.04261C8.65838 9.07102 8.50355 9.08523 8.31605 9.08523C8.03196 9.08523 7.75355 9.02415 7.48082 8.90199C7.21094 8.77983 6.98651 8.59375 6.80753 8.34375C6.63139 8.09375 6.54332 7.77841 6.54332 7.39773V0.886364Z" fill="white"/>
</svg>
