<svg width="12" height="11" viewBox="0 0 12 11" fill="none" xmlns="http://www.w3.org/2000/svg">
<path d="M0.164721 0.424786C0.567604 0.390078 0.933056 0.362856 1.29715 0.326787C2.07229 0.249886 2.84607 0.15461 3.62189 0.0933608C4.26228 0.0430005 4.90539 0.0103344 5.54715 0.00216783C7.47717 -0.0168874 9.40243 0.0913191 11.3243 0.262136C11.6516 0.291399 11.7496 0.377828 11.7537 0.690879C11.7646 1.48643 11.8674 2.28131 11.7537 3.07687C11.738 3.21237 11.7327 3.34888 11.7381 3.48519C11.7503 4.82813 11.7644 6.1713 11.7803 7.5147C11.7877 8.0986 11.8143 8.68183 11.8211 9.26574C11.8252 9.64956 11.7571 9.74212 11.3849 9.83875C11.1038 9.90681 10.8112 9.93675 10.5246 9.98847C9.8126 10.1074 9.09257 10.1723 8.37072 10.1824C6.93137 10.2253 5.48862 10.2471 4.05335 10.358C2.95699 10.4431 1.87561 10.3757 0.786739 10.2852C0.270886 10.2423 0.22597 10.2103 0.147027 9.71558C0.0949099 9.38883 0.0651237 9.05891 0.057876 8.72811C0.0292931 7.36702 -0.00541463 6.00117 0.000710266 4.63735C0.00479353 3.74516 0.0776118 2.8482 0.114361 1.95329C0.126611 1.64228 0.119806 1.32991 0.127972 1.01822C0.136139 0.828349 0.151111 0.639157 0.164721 0.424786ZM0.619325 0.939277C0.61252 1.10465 0.60095 1.20061 0.598909 1.2952C0.5887 1.83964 0.581214 2.38407 0.570326 2.92851C0.553312 3.72747 0.514521 4.52711 0.522007 5.32607C0.532896 6.49592 0.571006 7.6651 0.609117 8.83495C0.618644 9.12146 0.598909 9.42158 0.77585 9.69516C0.847463 9.71916 0.920693 9.73804 0.994985 9.75164C1.96284 9.87804 2.94098 9.90631 3.91452 9.83603C4.22553 9.81085 4.53654 9.78159 4.84823 9.76798C5.88129 9.71966 6.91436 9.68495 7.94674 9.63187C8.80287 9.58695 9.66172 9.59376 10.5104 9.43995C11.1991 9.31474 11.2202 9.30385 11.2467 8.58927C11.2467 8.55048 11.2467 8.51169 11.2467 8.47222C11.2503 6.97094 11.254 5.46943 11.2576 3.9677C11.2576 3.77238 11.2692 3.57775 11.2719 3.38243C11.2821 2.642 11.293 1.90157 11.2964 1.16113C11.2867 1.04113 11.2674 0.922099 11.2385 0.80521C10.1258 0.737156 9.03834 0.659574 7.95083 0.601047C7.34991 0.569742 6.74354 0.546603 6.13922 0.546603C5.34026 0.552728 4.53994 0.572464 3.74302 0.622824C3.02369 0.66774 2.30776 0.758933 1.59046 0.835154C1.28081 0.868501 0.971847 0.902528 0.619325 0.939277Z" fill="white"/>
<path d="M9.98429 4.79115C9.9208 4.9703 9.82039 5.13412 9.68955 5.27199C9.55872 5.40986 9.40038 5.5187 9.2248 5.59147C8.21215 6.04199 7.20154 6.49728 6.18821 6.94576C5.52944 7.23703 4.86727 7.51946 4.20579 7.8046C4.13501 7.83684 4.06172 7.86324 3.98665 7.88355C3.49462 8.00536 3.28365 7.79644 3.29726 7.38131C3.30475 7.12882 3.28909 6.87566 3.28501 6.6225C3.27684 6.05765 3.3027 5.49075 3.2537 4.92999C3.20471 4.36922 3.268 3.80232 3.31495 3.24087C3.34286 2.90469 3.4708 2.7924 3.81107 2.82234C4.10179 2.85009 4.39031 2.89739 4.67468 2.96389C5.49133 3.15036 6.30799 3.34023 7.11715 3.54508C8.00663 3.76898 8.85186 4.12218 9.69574 4.4747C9.76603 4.50773 9.82933 4.55393 9.88221 4.61081C9.92348 4.66653 9.95776 4.72709 9.98429 4.79115ZM3.88457 7.25268C3.97151 7.23782 4.05726 7.21667 4.14113 7.18939C4.60663 6.99203 5.07144 6.79536 5.53285 6.58983C6.57952 6.12298 7.62529 5.65363 8.67016 5.18179C8.82124 5.11373 8.98321 5.05044 9.02812 4.83403C8.81443 4.73739 8.62388 4.64212 8.42652 4.56181C7.83023 4.32543 7.21572 4.13789 6.58905 4.00104C5.82956 3.84043 5.07824 3.64103 4.32352 3.45661C4.17176 3.41918 4.02204 3.37426 3.84714 3.47294C3.81745 3.57715 3.80032 3.68453 3.7961 3.7928C3.87912 4.93543 3.7927 6.08011 3.88457 7.25268Z" fill="white"/>
</svg>
